{"title":"Gaslight (1944) - Dutch subtitles--","uid":6076435,"size":1070735905,"categoryP":"video","categoryS":"movies","magnet":"?xt=urn:btih:06ee1a5ea3a114997b11d5c9e931ba77e0d46d50&amp;dn=Gaslight+%281944%29+-+Dutch+subtitles--&amp;tr=udp%3A%2F%2Ftracker.openbittorrent.com%3A80&amp;tr=udp%3A%2F%2Fopen.demonii.com%3A1337&amp;tr=udp%3A%2F%2Ftracker.coppersurfer.tk%3A6969&amp;tr=udp%3A%2F%2Fexodus.desync.com%3A6969","seeders":0,"leechers":1,"uploader":"Filmofiel","files":2,"time":1293843450,"description":"Verenigde Staten\nMystery / Thriller\n114 minuten\n\ngeregisseerd door George Cukor\nmet Charles Boyer, Ingrid Bergman en Joseph Cotten\n\nWanneer Paula het levenloze lichaam van haar beroemde tante Alice vindt, verlaat ze Londen. Enkele jaren nadien ontmoet ze een zekere Gregory Anton. Ze worden verliefd en stappen in het huwelijksbootje. Het koppel keert terug naar Engeland om hun intrek te nemen in de woning van Alice. Daar gebeuren mysterieuze voorvallen die enkel Paula ziet en hoort. Op den duur begint ze te geloven dat ze gek wordt.\n\nInfo:\n\nFormat                           : AVI\nFormat/Info                      : Audio Video Interleave\nFile size                        : 1 021 MiB\nDuration                         : 1h 49mn\nOverall bit rate                 : 1 309 Kbps\nWriting application              : Lavf50.6.0\n\nVideo\nID                               : 0\nFormat                           : MPEG-4 Visual\nCodec ID                         : DIV3\nCodec ID/Hint                    : DivX 3 Low\nDuration                         : 1h 49mn\nBit rate                         : 1 200 Kbps\nWidth                            : 720 pixels\nHeight                           : 576 pixels\nDisplay aspect ratio             : 5:4\nFrame rate                       : 25.000 fps\nStandard                         : PAL\nColor space                      : YUV\nChroma subsampling               : 4:2:0\nBit depth                        : 8 bits\nCompression mode                 : Lossy\nBits/(Pixel*Frame)               : 0.116\nStream size                      : 936 MiB (92%)\n\nAudio\nID                               : 1\nFormat                           : MPEG Audio\nFormat version                   : Version 1\nFormat profile                   : Layer 3\nMode                             : Joint stereo\nMode extension                   : MS Stereo\nCodec ID                         : 55\nCodec ID/Hint                    : MP3\nDuration                         : 1h 49mn\nBit rate mode                    : Constant\nBit rate                         : 96.0 Kbps\nChannel(s)                       : 2 channels\nSampling rate                    : 44.1 KHz\nCompression mode                 : Lossy\nStream size                      : 74.9 MiB (7%)\nAlignment                        : Aligned on interleaves\nInterleave, duration             : 26 ms (0.65 video frame)\n\nEngels gesproken, nederlands ondertiteld (.srt, gedownload v. ondertitel.com , radicaal verbeterd (was nodig ook!)).\n\nMoviemeter: http://www.moviemeter.nl/film/2665\nImdB: http://www.imdb.com/title/tt0036855/","torrent":{"xt":"urn:btih:06ee1a5ea3a114997b11d5c9e931ba77e0d46d50","amp;dn":"Gaslight+%281944%29+-+Dutch+subtitles--","amp;tr":["udp%3A%2F%2Ftracker.openbittorrent.com%3A80","udp%3A%2F%2Fopen.demonii.com%3A1337","udp%3A%2F%2Ftracker.coppersurfer.tk%3A6969","udp%3A%2F%2Fexodus.desync.com%3A6969"],"infoHash":"06ee1a5ea3a114997b11d5c9e931ba77e0d46d50","infoHashBuffer":{"type":"Buffer","data":[6,238,26,94,163,161,20,153,123,17,213,201,233,49,186,119,224,212,109,80]},"announce":[],"urlList":[]}}